ffmpeg started on 2025-06-27 at 10:16:26
Report written to "D:\Convert\FFMetrics\reports\ssim_report-6.txt"
Log level: 32
Command line:
ffmpeg -hide_banner -nostdin -i "G:\\\xc0\xed\xe8\xec\xe5\\[\xd2\xee\xef-4]\\\xd2\xee\xea\xe8\xe9\xf1\xea\xe8\xe9 \xc3\xf3\xeb\xfc\\\xd2\xc2-4\\Tokyo_Ghoul_Re_[10]_[AniLibria_TV]_[HDTVRip_720p]_HEVC.mkv" -i "G:\\\xc0\xed\xe8\xec\xe5\\[\xd2\xee\xef-4]\\\xd2\xee\xea\xe8\xe9\xf1\xea\xe8\xe9 \xc3\xf3\xeb\xfc\\\xd2\xc2-4\\Tokyo_Ghoul_Re_[10]_[AniLibria_TV]_[HDTVRip_720p].mkv" -lavfi "[0:v]settb=AVTB,setpts=PTS-STARTPTS,format=pix_fmts=yuv420p10,fps=24000/1001,scale=1280:720:flags=bicubic[main];[1:v]settb=AVTB,setpts=PTS-STARTPTS,format=pix_fmts=yuv420p,fps=24000/1001,scale=1280:720:flags=bicubic[ref];[main][ref]ssim=eof_action=endall:stats_file='D\\:/Convert/FFMetrics/logs/ssim_logfile-6.txt'" -f null -
Input #0, matroska,webm, from 'G:\Аниме\[Топ-4]\Токийский Гуль\ТВ-4\Tokyo_Ghoul_Re_[10]_[AniLibria_TV]_[HDTVRip_720p]_HEVC.mkv':
  Metadata:
    ENCODER         : Lavf61.7.100
  Duration: 00:24:30.08, start: -0.021000, bitrate: 611 kb/s
  Stream #0:0(jpn): Video: hevc (Main 10), yuv420p10le(tv, bt709, progressive), 1280x720 [SAR 1:1 DAR 16:9], 23.98 fps, 23.98 tbr, 1k tbn (default)
      Metadata:
        ENCODER         : Lavc61.19.100 libx265
        BPS             : 413919
        DURATION        : 00:24:29.968708333
        NUMBER_OF_FRAMES: 35244
        NUMBER_OF_BYTES : 76056008
        _STATISTICS_WRITING_APP: mkvpropedit v66.0.0 ('Josie') 64-bit
        _STATISTICS_WRITING_DATE_UTC: 2025-06-26 14:35:01
        _STATISTICS_TAGS: BPS DURATION NUMBER_OF_FRAMES NUMBER_OF_BYTES
  Stream #0:1(rus): Audio: aac (LC), 48000 Hz, stereo, fltp (default) (forced)
      Metadata:
        title           : Lupin, Silv, December & MyAska
        ENCODER         : Lavc61.19.100 aac
        BPS             : 193430
        DURATION        : 00:24:30.058000000
        NUMBER_OF_FRAMES: 68910
        NUMBER_OF_BYTES : 35544235
        _STATISTICS_WRITING_APP: mkvpropedit v66.0.0 ('Josie') 64-bit
        _STATISTICS_WRITING_DATE_UTC: 2025-06-26 14:35:01
        _STATISTICS_TAGS: BPS DURATION NUMBER_OF_FRAMES NUMBER_OF_BYTES
  Stream #0:2(rus): Subtitle: ass (ssa) (default) (forced)
      Metadata:
        title           : Надписи
        BPS             : 2
        DURATION        : 00:19:24.580000000
        NUMBER_OF_FRAMES: 6
        NUMBER_OF_BYTES : 382
        _STATISTICS_WRITING_APP: mkvpropedit v66.0.0 ('Josie') 64-bit
        _STATISTICS_WRITING_DATE_UTC: 2025-06-26 14:35:01
        _STATISTICS_TAGS: BPS DURATION NUMBER_OF_FRAMES NUMBER_OF_BYTES
  Stream #0:3(rus): Subtitle: ass (ssa)
      Metadata:
        title           : Субтитры
        BPS             : 139
        DURATION        : 00:24:13.770000000
        NUMBER_OF_FRAMES: 362
        NUMBER_OF_BYTES : 25397
        _STATISTICS_WRITING_APP: mkvpropedit v66.0.0 ('Josie') 64-bit
        _STATISTICS_WRITING_DATE_UTC: 2025-06-26 14:35:01
        _STATISTICS_TAGS: BPS DURATION NUMBER_OF_FRAMES NUMBER_OF_BYTES
Input #1, matroska,webm, from 'G:\Аниме\[Топ-4]\Токийский Гуль\ТВ-4\Tokyo_Ghoul_Re_[10]_[AniLibria_TV]_[HDTVRip_720p].mkv':
  Metadata:
    encoder         : libebml v1.4.2 + libmatroska v1.6.4
    creation_time   : 2024-12-27T09:46:53.000000Z
  Duration: 00:24:30.06, start: 0.000000, bitrate: 1757 kb/s
  Stream #1:0(jpn): Video: h264 (Main), yuv420p(tv, bt709, progressive), 1280x720, SAR 1:1 DAR 16:9, 23.98 fps, 23.98 tbr, 1k tbn (default)
      Metadata:
        BPS             : 1563042
        DURATION        : 00:24:29.969000000
        NUMBER_OF_FRAMES: 35244
        NUMBER_OF_BYTES : 287203005
        _STATISTICS_WRITING_APP: mkvmerge v66.0.0 ('Josie') 64-bit
        _STATISTICS_WRITING_DATE_UTC: 2024-12-27 09:46:53
        _STATISTICS_TAGS: BPS DURATION NUMBER_OF_FRAMES NUMBER_OF_BYTES
  Stream #1:1(rus): Audio: aac (LC), 48000 Hz, stereo, fltp (default) (forced)
      Metadata:
        title           : Lupin, Silv, December & MyAska
        BPS             : 192091
        DURATION        : 00:24:30.059000000
        NUMBER_OF_FRAMES: 68909
        NUMBER_OF_BYTES : 35298282
        _STATISTICS_WRITING_APP: mkvmerge v66.0.0 ('Josie') 64-bit
        _STATISTICS_WRITING_DATE_UTC: 2024-12-27 09:46:53
        _STATISTICS_TAGS: BPS DURATION NUMBER_OF_FRAMES NUMBER_OF_BYTES
  Stream #1:2(rus): Subtitle: ass (ssa) (default) (forced)
      Metadata:
        title           : Надписи
        BPS             : 2
        DURATION        : 00:19:24.580000000
        NUMBER_OF_FRAMES: 6
        NUMBER_OF_BYTES : 382
        _STATISTICS_WRITING_APP: mkvmerge v66.0.0 ('Josie') 64-bit
        _STATISTICS_WRITING_DATE_UTC: 2024-12-27 09:46:53
        _STATISTICS_TAGS: BPS DURATION NUMBER_OF_FRAMES NUMBER_OF_BYTES
  Stream #1:3(rus): Subtitle: ass (ssa)
      Metadata:
        title           : Субтитры
        BPS             : 139
        DURATION        : 00:24:13.770000000
        NUMBER_OF_FRAMES: 362
        NUMBER_OF_BYTES : 25397
        _STATISTICS_WRITING_APP: mkvmerge v66.0.0 ('Josie') 64-bit
        _STATISTICS_WRITING_DATE_UTC: 2024-12-27 09:46:53
        _STATISTICS_TAGS: BPS DURATION NUMBER_OF_FRAMES NUMBER_OF_BYTES
Stream mapping:
  Stream #0:0 (hevc) -> settb:default
  Stream #1:0 (h264) -> settb:default
  ssim:default -> Stream #0:0 (wrapped_avframe)
  Stream #0:1 -> #0:1 (aac (native) -> pcm_s16le (native))
Output #0, null, to 'pipe:':
  Metadata:
    encoder         : Lavf61.7.100
  Stream #0:0: Video: wrapped_avframe, yuv420p10le(tv, bt709, progressive), 1280x720 [SAR 1:1 DAR 16:9], q=2-31, 200 kb/s, 23.98 fps, 23.98 tbn
      Metadata:
        encoder         : Lavc61.19.100 wrapped_avframe
  Stream #0:1(rus): Audio: pcm_s16le, 48000 Hz, stereo, s16, 1536 kb/s (default) (forced)
      Metadata:
        title           : Lupin, Silv, December & MyAska
        _STATISTICS_TAGS: BPS DURATION NUMBER_OF_FRAMES NUMBER_OF_BYTES
        BPS             : 193430
        DURATION        : 00:24:30.058000000
        NUMBER_OF_FRAMES: 68910
        NUMBER_OF_BYTES : 35544235
        _STATISTICS_WRITING_APP: mkvpropedit v66.0.0 ('Josie') 64-bit
        _STATISTICS_WRITING_DATE_UTC: 2025-06-26 14:35:01
        encoder         : Lavc61.19.100 pcm_s16le
frame=  499 fps=0.0 q=-0.0 size=N/A time=00:00:20.81 bitrate=N/A speed=40.5x    frame= 1115 fps=1080 q=-0.0 size=N/A time=00:00:46.50 bitrate=N/A speed=45.1x    frame= 1521 fps=981 q=-0.0 size=N/A time=00:01:03.43 bitrate=N/A speed=40.9x    frame= 2027 fps=980 q=-0.0 size=N/A time=00:01:24.54 bitrate=N/A speed=40.9x    frame= 2569 fps=998 q=-0.0 size=N/A time=00:01:47.14 bitrate=N/A speed=41.6x    frame= 3130 fps=1012 q=-0.0 size=N/A time=00:02:10.54 bitrate=N/A speed=42.2x    frame= 3704 fps=1026 q=-0.0 size=N/A time=00:02:34.48 bitrate=N/A speed=42.8x    frame= 4182 fps=1014 q=-0.0 size=N/A time=00:02:54.42 bitrate=N/A speed=42.3x    frame= 4532 fps=976 q=-0.0 size=N/A time=00:03:09.02 bitrate=N/A speed=40.7x    frame= 4878 fps=946 q=-0.0 size=N/A time=00:03:23.45 bitrate=N/A speed=39.4x    frame= 5254 fps=926 q=-0.0 size=N/A time=00:03:39.13 bitrate=N/A speed=38.6x    frame= 5579 fps=902 q=-0.0 size=N/A time=00:03:52.69 bitrate=N/A speed=37.6x    frame= 5968 fps=890 q=-0.0 size=N/A time=00:04:08.91 bitrate=N/A speed=37.1x    frame= 6289 fps=871 q=-0.0 size=N/A time=00:04:22.30 bitrate=N/A speed=36.3x    frame= 6882 fps=889 q=-0.0 size=N/A time=00:04:47.03 bitrate=N/A speed=37.1x    frame= 7442 fps=901 q=-0.0 size=N/A time=00:05:10.39 bitrate=N/A speed=37.6x    frame= 7955 fps=908 q=-0.0 size=N/A time=00:05:31.78 bitrate=N/A speed=37.9x    frame= 8506 fps=916 q=-0.0 size=N/A time=00:05:54.77 bitrate=N/A speed=38.2x    frame= 9051 fps=923 q=-0.0 size=N/A time=00:06:17.50 bitrate=N/A speed=38.5x    frame= 9613 fps=932 q=-0.0 size=N/A time=00:06:40.94 bitrate=N/A speed=38.9x    frame=10124 fps=935 q=-0.0 size=N/A time=00:07:02.25 bitrate=N/A speed=  39x    frame=10646 fps=939 q=-0.0 size=N/A time=00:07:24.02 bitrate=N/A speed=39.1x    frame=11237 fps=947 q=-0.0 size=N/A time=00:07:48.67 bitrate=N/A speed=39.5x    frame=11723 fps=947 q=-0.0 size=N/A time=00:08:08.94 bitrate=N/A speed=39.5x    frame=12273 fps=952 q=-0.0 size=N/A time=00:08:31.88 bitrate=N/A speed=39.7x    frame=12877 fps=960 q=-0.0 size=N/A time=00:08:57.07 bitrate=N/A speed=40.1x    frame=13438 fps=965 q=-0.0 size=N/A time=00:09:20.47 bitrate=N/A speed=40.2x    frame=14047 fps=973 q=-0.0 size=N/A time=00:09:45.87 bitrate=N/A speed=40.6x    frame=14607 fps=976 q=-0.0 size=N/A time=00:10:09.23 bitrate=N/A speed=40.7x    frame=15166 fps=980 q=-0.0 size=N/A time=00:10:32.54 bitrate=N/A speed=40.9x    frame=15651 fps=979 q=-0.0 size=N/A time=00:10:52.77 bitrate=N/A speed=40.8x    frame=16208 fps=982 q=-0.0 size=N/A time=00:11:16.00 bitrate=N/A speed=  41x    frame=16784 fps=986 q=-0.0 size=N/A time=00:11:40.03 bitrate=N/A speed=41.1x    frame=17314 fps=987 q=-0.0 size=N/A time=00:12:02.13 bitrate=N/A speed=41.2x    frame=17867 fps=990 q=-0.0 size=N/A time=00:12:25.20 bitrate=N/A speed=41.3x    frame=18350 fps=989 q=-0.0 size=N/A time=00:12:45.34 bitrate=N/A speed=41.2x    frame=18914 fps=991 q=-0.0 size=N/A time=00:13:08.87 bitrate=N/A speed=41.3x    frame=19400 fps=990 q=-0.0 size=N/A time=00:13:29.14 bitrate=N/A speed=41.3x    frame=19913 fps=990 q=-0.0 size=N/A time=00:13:50.53 bitrate=N/A speed=41.3x    frame=20473 fps=992 q=-0.0 size=N/A time=00:14:13.89 bitrate=N/A speed=41.4x    frame=20984 fps=992 q=-0.0 size=N/A time=00:14:35.20 bitrate=N/A speed=41.4x    frame=21528 fps=994 q=-0.0 size=N/A time=00:14:57.89 bitrate=N/A speed=41.4x    frame=22070 fps=995 q=-0.0 size=N/A time=00:15:20.50 bitrate=N/A speed=41.5x    frame=22634 fps=998 q=-0.0 size=N/A time=00:15:44.02 bitrate=N/A speed=41.6x    frame=23171 fps=999 q=-0.0 size=N/A time=00:16:06.42 bitrate=N/A speed=41.6x    frame=23698 fps=999 q=-0.0 size=N/A time=00:16:28.40 bitrate=N/A speed=41.7x    frame=24248 fps=1001 q=-0.0 size=N/A time=00:16:51.34 bitrate=N/A speed=41.7x    frame=24813 fps=1002 q=-0.0 size=N/A time=00:17:14.90 bitrate=N/A speed=41.8x    frame=25390 fps=1005 q=-0.0 size=N/A time=00:17:38.97 bitrate=N/A speed=41.9x    frame=25915 fps=1005 q=-0.0 size=N/A time=00:18:00.87 bitrate=N/A speed=41.9x    frame=26470 fps=1006 q=-0.0 size=N/A time=00:18:24.01 bitrate=N/A speed=  42x    frame=27038 fps=1008 q=-0.0 size=N/A time=00:18:47.70 bitrate=N/A speed=  42x    frame=27567 fps=1008 q=-0.0 size=N/A time=00:19:09.77 bitrate=N/A speed=42.1x    frame=28122 fps=1010 q=-0.0 size=N/A time=00:19:32.92 bitrate=N/A speed=42.1x    frame=28661 fps=1011 q=-0.0 size=N/A time=00:19:55.40 bitrate=N/A speed=42.2x    frame=29205 fps=1011 q=-0.0 size=N/A time=00:20:18.09 bitrate=N/A speed=42.2x    frame=29782 fps=1013 q=-0.0 size=N/A time=00:20:42.15 bitrate=N/A speed=42.3x    frame=30246 fps=1011 q=-0.0 size=N/A time=00:21:01.51 bitrate=N/A speed=42.2x    frame=30789 fps=1012 q=-0.0 size=N/A time=00:21:24.15 bitrate=N/A speed=42.2x    frame=31348 fps=1013 q=-0.0 size=N/A time=00:21:47.47 bitrate=N/A speed=42.3x    frame=31784 fps=1011 q=-0.0 size=N/A time=00:22:05.65 bitrate=N/A speed=42.2x    frame=32091 fps=1004 q=-0.0 size=N/A time=00:22:18.46 bitrate=N/A speed=41.9x    frame=32536 fps=1002 q=-0.0 size=N/A time=00:22:37.02 bitrate=N/A speed=41.8x    frame=32862 fps=996 q=-0.0 size=N/A time=00:22:50.61 bitrate=N/A speed=41.5x    frame=33341 fps=995 q=-0.0 size=N/A time=00:23:10.59 bitrate=N/A speed=41.5x    frame=33739 fps=992 q=-0.0 size=N/A time=00:23:27.19 bitrate=N/A speed=41.4x    frame=34165 fps=989 q=-0.0 size=N/A time=00:23:44.96 bitrate=N/A speed=41.2x    frame=34660 fps=988 q=-0.0 size=N/A time=00:24:05.61 bitrate=N/A speed=41.2x    frame=35215 fps=990 q=-0.0 size=N/A time=00:24:28.75 bitrate=N/A speed=41.3x    [Parsed_ssim_10 @ 0000025115f2cd40] SSIM Y:0.990711 (20.320253) U:0.992428 (21.207955) V:0.992847 (21.455362) All:0.991353 (20.631431)
[out#0/null @ 00000251123d0f00] video:15144KiB audio:275640KiB subtitle:0KiB other streams:0KiB global headers:0KiB muxing overhead: unknown
frame=35244 fps=990 q=-0.0 Lsize=N/A time=00:24:29.96 bitrate=N/A speed=41.3x    
